<?xml version="1.0" encoding="UTF-8" standalone="no"?>
<!-- Created with Inkscape (http://www.inkscape.org/) -->

<svg
   version="1.1"
   id="svg1"
   width="453.54666"
   height="124.49333"
   viewBox="0 0 453.54666 124.49333"
   sodipodi:docname="BR01_Bring_Logo_Black.eps"
   xmlns:inkscape="http://www.inkscape.org/namespaces/inkscape"
   xmlns:sodipodi="http://sodipodi.sourceforge.net/DTD/sodipodi-0.dtd"
   xmlns="http://www.w3.org/2000/svg"
   xmlns:svg="http://www.w3.org/2000/svg">
  <defs
     id="defs1" />
  <sodipodi:namedview
     id="namedview1"
     pagecolor="#ffffff"
     bordercolor="#000000"
     borderopacity="0.25"
     inkscape:showpageshadow="2"
     inkscape:pageopacity="0.0"
     inkscape:pagecheckerboard="0"
     inkscape:deskcolor="#d1d1d1">
    <inkscape:page
       x="0"
       y="0"
       inkscape:label="1"
       id="page1"
       width="453.54666"
       height="124.49333"
       margin="0"
       bleed="0" />
  </sodipodi:namedview>
  <g
     id="g1"
     inkscape:groupmode="layer"
     inkscape:label="1">
    <g
       id="group-R5">
      <path
         id="path2"
         d="m 272.316,137.383 c 93.633,0 164.137,53.5 164.137,141.023 0,60.785 -41.328,143.461 -160.48,143.461 H 131.305 V 137.383 Z m -32.804,404.828 c 88.734,0 143.461,42.555 143.461,126.437 0,86.321 -54.727,127.665 -150.778,127.665 H 131.305 V 542.211 Z M 0,17.0234 V 916.656 h 244.348 c 165.347,0 269.898,-103.32 269.898,-244.347 0,-76.598 -21.891,-125.231 -80.242,-175.071 86.316,-48.629 133.758,-117.925 133.758,-218.832 0,-160.48 -120.364,-261.3826 -284.5,-261.3826 L 0,17.0234"
         style="fill:#040606;fill-opacity:1;fill-rule:nonzero;stroke:none"
         transform="matrix(0.13333333,0,0,-0.13333333,0,124.49333)" />
      <path
         id="path3"
         d="m 876.379,452.254 c 153.161,0 241.931,59.574 241.931,176.273 0,103.34 -82.66,167.786 -199.392,167.786 H 780.324 V 452.254 Z M 1079.4,17.0234 782.773,434.02 h -2.449 V 17.0234 H 649.02 V 916.656 h 288.128 c 216.412,0 312.462,-114.265 312.462,-299.054 0,-171.426 -131.3,-261.387 -257.739,-265.032 L 1243.54,17.0234 H 1079.4"
         style="fill:#040606;fill-opacity:1;fill-rule:nonzero;stroke:none"
         transform="matrix(0.13333333,0,0,-0.13333333,0,124.49333)" />
      <path
         id="path4"
         d="M 1355.73,17.0234 V 916.656 h 131.31 V 17.0234 h -131.31"
         style="fill:#040606;fill-opacity:1;fill-rule:nonzero;stroke:none"
         transform="matrix(0.13333333,0,0,-0.13333333,0,124.49333)" />
      <path
         id="path5"
         d="M 2196.43,17.0234 1751.48,712.43 h -2.45 V 17.0234 H 1617.76 V 916.656 h 143.42 l 437.67,-684.445 h 2.45 v 684.445 h 131.3 V 17.0234 h -136.17"
         style="fill:#040606;fill-opacity:1;fill-rule:nonzero;stroke:none"
         transform="matrix(0.13333333,0,0,-0.13333333,0,124.49333)" />
      <path
         id="path6"
         d="M 2991.7,467.141 V 344.059 h 205.24 C 3139.8,199.395 3025.55,120.363 2883.3,120.363 c -181.16,0 -330.67,160.481 -330.67,350.137 0,177.484 150.75,342.836 325.8,342.836 99.68,0 176.29,-35.27 252.87,-122.797 h 1.5 l 93.61,83.574 C 3135.93,880.25 3012.12,933.68 2872.35,933.68 2645.02,933.68 2421.32,746.457 2421.32,454.684 2421.32,211.547 2629.21,0 2872.35,0 c 184.24,0 361.48,98.6055 407.37,271.684 V 15.5273 h 121.85 V 467.141 H 2991.7"
         style="fill:#040606;fill-opacity:1;fill-rule:nonzero;stroke:none"
         transform="matrix(0.13333333,0,0,-0.13333333,0,124.49333)" />
    </g>
  </g>
</svg>
